<svg xmlns="http://www.w3.org/2000/svg"><symbol id="savager-logo" viewBox="0 0 530.65 180.46"><path d="M200 40.46V30q0-6 5.4-6h11.42l24-24h-50.67a14.86 14.86 0 00-11.1 4.4 15.35 15.35 0 00-4.3 11.2l.06 49.86z"/><path d="M530.65 59a29.32 29.32 0 00-6.75-11.7q-9-9.3-23.8-9.3a28.18 28.18 0 00-16.1 4.5 24.2 24.2 0 00-9.5 12.7h-3.6V40.8h-42v2.42c-.46-.24-.92-.49-1.4-.72q-9.19-4.5-22-4.5a51.23 51.23 0 00-19.5 3.7 52.26 52.26 0 00-7.1 3.55V40.8h-25.2v14.4h-3.6a30.64 30.64 0 00-11-12.7q-7-4.5-19-4.5a43.68 43.68 0 00-17.1 3.4 41.22 41.22 0 00-14.2 9.9l-.06.06c-.83-.92-1.71-1.81-2.64-2.66a39.79 39.79 0 00-13.2-7.9 46.44 46.44 0 00-16.2-2.8 51.05 51.05 0 00-14.8 2c-1.3.39-2.54.84-3.74 1.3l.14-.5h-27.2l-20.29 75.66h-10L160.7 40.8h-27.2l3.12 10.88a37.29 37.29 0 00-2.92-3 39.79 39.79 0 00-13.2-7.9A46.44 46.44 0 00104.3 38H38.1a49.46 49.46 0 00-14 2 37.36 37.36 0 00-12 5.9 30.92 30.92 0 00-8.4 9.5 25.78 25.78 0 00-3.2 13v1.2q0 14.2 9.9 21.5t26.7 8.7a74.58 74.58 0 0110.3 1.6 22.56 22.56 0 016.5 2.5 9 9 0 013.3 3.2 7.79 7.79 0 01.9 3.7q0 3.4-3.5 6.3T41.7 120q-10.6 0-15.7-4.8a22.75 22.75 0 01-6.7-11.2L0 122.3a33.15 33.15 0 008.3 10 45.4 45.4 0 0013.6 7.5q8.21 3 19.8 3 18 0 28.59-7.44a32.75 32.75 0 009.11 5 43.5 43.5 0 0015.1 2.4q11.4 0 17.5-4.4a22.84 22.84 0 008.5-11.6h3.6q.41 7 5.4 10.1a22.68 22.68 0 0012.2 3.1h68.2l4.52-15.8a27 27 0 006.48 9.6 31.19 31.19 0 0010.9 6.6 43.5 43.5 0 0015.1 2.4q11.4 0 17.5-4.4a22.84 22.84 0 008.5-11.6h4.2q.4 7 5.4 10.1c3.33 2.07 7.31 2.56 12.2 2.56h30.11c5.42-.11 15.72 0 29 0v11c0 4-2 6-5.64 6h-11.42l-24 24h50.63a14.82 14.82 0 0011.09-4.4 15.35 15.35 0 004.3-11.2v-25.27c50.65.16 116.16.41 116.16.41V116H472.1V84q0-10.8 4.8-16.6t13.2-5.8q8.4 0 12.6 4.9t4.2 13.1v2.8zM114.9 113.5q-5.59 5.3-15.6 5.3-7 0-10.1-2.7a8.73 8.73 0 01-3.1-6.9 8.31 8.31 0 012.7-6.2q2.7-2.59 8.1-2.6h23.6a17.32 17.32 0 01-5.6 13.1zm5.6-34.7H93.7A39.07 39.07 0 0080.5 81a31.5 31.5 0 00-9.74 5.48q-9-5.88-22.26-7.28t-18.2-3.5q-5-2.1-5-6.9a6.82 6.82 0 013.2-5.7q3.2-2.3 9.6-2.3l64.4 1.2q8.81 0 13.4 4.6a15 15 0 014.6 11zm30.6 37.2q-5.4 0-5.4-6V83.41L155 116zm74.68-31.47l4.1-14.31s7.93-8.76 25-8.22q8.8 0 13.4 4.6a15 15 0 014.6 11v1.2H246.1a39.07 39.07 0 00-13.2 2.2 32.6 32.6 0 00-7.12 3.53zm25.92 34.27q-7 0-10.1-2.7a8.73 8.73 0 01-3.1-6.9 8.31 8.31 0 012.7-6.2q2.7-2.59 8.1-2.6h23.6a17.32 17.32 0 01-5.6 13.1q-5.59 5.3-15.6 5.3zm102-27.2q0 12.2-7.3 19.7t-19.1 7.5q-11.81 0-19.1-7.3t-7.3-19.9v-2.4q0-12.6 7.3-19.9t19.1-7.3q11.81 0 19.1 7.5t7.3 19.7zm36-25.9q6-4.91 15.6-4.9t15.9 4.6a17.77 17.77 0 017.5 11.6h-46.8a22.38 22.38 0 017.8-11.3zm57.2 50.3s-52.61.49-53.6 0a23.87 23.87 0 01-4.5-2.9 20 20 0 01-5.2-6.4 19.37 19.37 0 01-2.1-8.1h65.4z"/></symbol></svg>